<svg width="60" height="60" viewBox="0 0 60 60" fill="none" xmlns="http://www.w3.org/2000/svg">
<g id="Group 627595">
<g id="Group 627594">
<path id="Vector" fill-rule="evenodd" clip-rule="evenodd" d="M49.3649 28.7275H8.23804V49.708H12.2691V32.9671H45.3339V49.708H49.3649V28.7275Z" fill="#276CF3"/>
<path id="Vector_2" d="M46.2969 31.3508H29.4343V49.7163H46.2969V31.3508Z" fill="#276CF3"/>
<g id="Group">
<path id="Vector_3" fill-rule="evenodd" clip-rule="evenodd" d="M19.1912 25.0181H23.6479L24.0128 28.7277H18.8263L19.1912 25.0181Z" fill="#004263"/>
<path id="Vector_4" d="M18.4791 28.1624H24.3432C24.4735 28.1624 24.5864 28.2666 24.5864 28.4056V28.5794C24.5864 28.7097 24.4822 28.8226 24.3432 28.8226H18.4791C18.3488 28.8226 18.2358 28.7184 18.2358 28.5794V28.4056C18.2358 28.2753 18.3401 28.1624 18.4791 28.1624Z" fill="#7994FA"/>
<path id="Vector_5" fill-rule="evenodd" clip-rule="evenodd" d="M12.0256 11.5779H30.8168C31.034 11.5779 31.2338 11.6561 31.3815 11.7864C31.5726 11.9428 31.6856 12.186 31.6856 12.4466V25.1392C31.6856 25.617 31.2946 26.0079 30.8168 26.0079H12.0256C11.5478 26.0079 11.1569 25.617 11.1569 25.1392V12.4466C11.1569 11.9688 11.5478 11.5779 12.0256 11.5779Z" fill="#005B88"/>
<path id="Vector_6" fill-rule="evenodd" clip-rule="evenodd" d="M31.5639 12.0122C31.6595 12.1425 31.6856 12.2468 31.6856 12.4466V25.1391C31.6856 25.6169 31.2946 26.0079 30.8168 26.0079H12.0256C11.5478 26.0079 11.1569 25.6169 11.1569 25.1391V23.8447L31.5639 12.0122Z" fill="#004263"/>
<path id="Vector_7" fill-rule="evenodd" clip-rule="evenodd" d="M31.6856 24.0527V25.1387C31.6856 25.6165 31.2946 26.0074 30.8168 26.0074H12.0256C11.5478 26.0074 11.1569 25.6165 11.1569 25.1387V24.0527H31.6942H31.6856Z" fill="#7994FA"/>
<path id="Vector_8" d="M30.9898 12.3516H11.8424V23.4282H30.9898V12.3516Z" fill="#CEDDE0"/>
<path id="Vector_9" fill-rule="evenodd" clip-rule="evenodd" d="M11.8424 12.3516H30.9898L11.8424 23.4282V12.3516Z" fill="#E6F0F2"/>
<path id="Vector_10" fill-rule="evenodd" clip-rule="evenodd" d="M20.5056 24.6008H22.3386C22.5298 24.6008 22.6775 24.7572 22.6775 24.9396C22.6775 25.1308 22.5211 25.2785 22.3386 25.2785H20.5056C20.3144 25.2785 20.1667 25.1221 20.1667 24.9396C20.1667 24.7485 20.3231 24.6008 20.5056 24.6008Z" fill="#004263"/>
</g>
<g id="Group_2">
<path id="Vector_11" fill-rule="evenodd" clip-rule="evenodd" d="M39.0523 16.224C39.8342 16.224 40.4684 15.5898 40.4684 14.8079C40.4684 14.026 39.8342 13.3918 39.0523 13.3918C38.2704 13.3918 37.6362 14.026 37.6362 14.8079C37.6362 15.5898 38.2704 16.224 39.0523 16.224Z" fill="#CEDDE0"/>
<path id="Vector_12" d="M48.8893 27.0408H41.3658V28.7262H48.8893V27.0408Z" fill="#7994FA"/>
<path id="Vector_13" d="M50.2322 17.9655L44.3657 27.4939L45.2387 28.0314L51.1052 18.5029L50.2322 17.9655Z" fill="#7994FA"/>
<g id="Group_3">
<path id="Vector_14" fill-rule="evenodd" clip-rule="evenodd" d="M50.9736 18.5101L43.4936 12.0378L42.8247 12.811L50.1396 19.1443L50.9736 18.5101Z" fill="#7994FA"/>
<g id="Group_4">
<path id="Vector_15" d="M41.9268 10.0008L40.7915 11.1013L42.8958 13.272L44.0311 12.1715L41.9268 10.0008Z" fill="#276CF3"/>
<path id="Vector_16" fill-rule="evenodd" clip-rule="evenodd" d="M40.8422 17.3458L36.6548 13.0281L40.7901 11.1082L42.8924 13.28L40.8422 17.3458Z" fill="#276CF3"/>
</g>
</g>
</g>
<path id="Vector_17" d="M46.2975 32.5063H31.6503V39.969H46.2975V32.5063Z" fill="#7994FA"/>
<path id="Vector_18" d="M46.1584 41.3057H31.5112V48.7683H46.1584V41.3057Z" fill="#7994FA"/>
<path id="Vector_19" d="M40.6953 35.3635H37.2463V37.1184H40.6953V35.3635Z" fill="#004263"/>
<path id="Vector_20" d="M40.5561 44.1648H37.1072V45.9197H40.5561V44.1648Z" fill="#004263"/>
</g>
</g>
</svg>
