<svg width="60" height="60" viewBox="0 0 60 60" fill="none" xmlns="http://www.w3.org/2000/svg">
<g id="Group 627593">
<g id="Group 627592">
<path id="Vector" d="M10.0396 31.0081L10.0615 30.9946L10.0381 31.0073C9.92868 31.0641 9.8253 31.1269 9.72644 31.2008L10.0404 31.0103V31.0088L10.0396 31.0081Z" fill="#276CF3"/>
<path id="Vector_2" d="M25.5542 36.7091C24.9407 36.2146 24.3619 35.6654 23.8291 35.0618L17.5778 38.8937L19.7843 40.2467L20.3888 39.8761C20.5231 39.77 20.6695 39.6759 20.8302 39.6049L25.5542 36.7084V36.7091Z" fill="#276CF3"/>
<path id="Vector_3" d="M21.5516 31.5594C21.2189 30.8347 20.9495 30.0951 20.7487 29.3457L12.2765 34.5388L12.0206 34.6942L11.9497 34.7391L12.0252 34.698C12.5104 35.3054 13.0605 35.8709 13.6763 36.385L14.0114 36.1795L14.6287 35.8022L21.5501 31.5601L21.5516 31.5594Z" fill="#276CF3"/>
<path id="Vector_4" d="M20.3077 24.7139L26.8881 20.681L26.8911 20.6862L29.7255 18.9507L29.8312 18.885L30.0017 18.7079C29.8312 18.5032 29.7489 18.2432 29.7897 17.9832L29.7995 17.9406C29.8214 17.836 29.8568 17.7337 29.9157 17.6373L30.0017 17.5477C30.2938 17.1973 30.7956 17.0912 31.2001 17.328L31.2295 17.3459L39.3252 22.3516L40.9507 23.3572C41.4102 23.6747 41.9951 23.8069 42.5822 23.6724C43.6855 23.4192 44.3722 22.3291 44.1179 21.2391C43.9873 20.6803 43.6349 20.2342 43.1768 19.9616L43.1195 19.9264L32.9772 13.6552L32.9719 13.6604L32.947 13.644C32.0015 13.0635 31.0107 12.6205 30.0025 12.282C27.5092 11.443 24.8793 11.3093 22.392 11.8405C21.8087 11.963 21.2359 12.1214 20.6737 12.3157C20.1689 12.4905 19.6746 12.6944 19.1901 12.9253C18.1744 13.13 17.0832 12.9701 16.1323 12.3881L13.8692 11L5 25.1838L7.05486 26.4427L8.33321 27.2264C8.99276 27.8151 9.43271 28.5809 9.61986 29.4035L9.65683 29.5985C9.71268 29.8966 9.7904 30.1895 9.87115 30.4823C9.9202 30.6594 9.97831 30.8342 10.0349 31.0083L10.0583 30.9956L20.3077 24.7139Z" fill="#276CF3"/>
<path id="Vector_5" d="M46.133 11L43.8706 12.3866C42.919 12.9686 41.8286 13.1278 40.8129 12.9238C40.3299 12.6937 39.8349 12.489 39.3293 12.3142C38.7678 12.1199 38.1935 11.9615 37.6132 11.839C35.1244 11.3078 32.4945 11.4408 30.0005 12.2805C31.0094 12.6197 32.0003 13.0628 32.9451 13.6425L32.97 13.659L32.9753 13.6537L43.1175 19.9249L43.1749 19.9601C43.6329 20.2328 43.9853 20.6795 44.1159 21.2376C44.3709 22.3276 43.6835 23.4177 42.5802 23.6709C41.9931 23.8054 41.4075 23.6732 40.9487 23.3557L39.3232 22.3501L31.2275 17.3444L31.1981 17.3265C30.7936 17.0897 30.2918 17.1958 29.9997 17.5462L30.0865 17.6358C30.3023 17.9847 30.2488 18.4083 29.9997 18.7064L29.8292 18.8835L29.7235 18.9492L26.8891 20.6848L26.8861 20.6795L20.3057 24.7124L10.0563 30.9941L10.0344 31.009L9.72051 31.1995C9.21113 31.5836 8.87683 32.1827 8.87683 32.8671C8.87683 34.0281 9.82616 34.968 10.9989 34.968C11.3415 34.968 11.6614 34.8791 11.9467 34.7378L12.0176 34.693L12.2734 34.5376L20.7457 29.3445C20.9464 30.0938 21.2158 30.8335 21.5486 31.5582L14.6271 35.8002L14.0098 36.1775C13.5676 36.563 13.2809 37.1204 13.2809 37.7494C13.2809 38.9104 14.2317 39.8503 15.4044 39.8503C15.9628 39.8503 16.4692 39.6321 16.848 39.281L16.8782 39.3221L17.5777 38.8925L23.8291 35.0606C24.3626 35.6643 24.9407 36.2134 25.5542 36.708L20.8302 39.6045C20.6695 39.6747 20.5231 39.7696 20.3887 39.8757C19.8982 40.2567 19.5783 40.8417 19.5783 41.5051C19.5783 42.6579 20.5216 43.5896 21.6867 43.5896C22.2972 43.5896 22.8436 43.3296 23.2284 42.9179L23.2918 42.9986L23.7936 42.6908L27.7924 40.2388L28.9923 39.5029V38.4457L28.9825 38.2455L28.9923 38.0453C29.0949 36.9851 29.9967 36.1559 31.0947 36.1559C32.2516 36.1574 33.1911 37.0808 33.2031 38.2253V38.2672L33.2016 40.8507V44.5302L35.5236 43.1069V42.829L35.5206 42.8081L35.5236 42.7879V40.563L35.5267 37.3721V35.1704L35.5214 35.0711L35.5274 34.9702C35.5508 34.4525 35.7674 33.984 36.1055 33.6336C36.4896 33.2362 37.0269 32.9881 37.6276 32.9866C38.2267 32.9881 38.7655 33.2362 39.1489 33.6336C39.5104 34.0087 39.7322 34.5137 39.7322 35.0725L39.7285 35.1734L39.7383 35.1719V40.5399L42.0595 39.1159V36.7334L42.061 33.7718V33.7651L42.058 33.6904L42.0716 33.4954V33.2391H42.1123C42.2557 32.6056 42.6889 32.0796 43.2699 31.8084C43.5424 31.6799 43.8457 31.603 44.1657 31.603C45.1739 31.6045 46.0123 32.3045 46.2198 33.2391H46.2598V33.5634L46.2688 33.6478L46.2741 33.6926L46.2688 33.7883V36.4315C47.8475 35.1278 49.0217 33.482 49.7371 31.671C50.0028 30.9993 50.205 30.3045 50.3439 29.5977L50.3793 29.4028C50.568 28.5794 51.0072 27.8144 51.6675 27.2257L52.9451 26.442L54.9992 25.1831L46.133 11Z" fill="#7994FA"/>
<path id="Vector_6" d="M39.7408 35.1719L39.731 35.1734L39.7348 35.0725C39.7348 34.5137 39.5129 34.0086 39.1515 33.6336C38.7681 33.2361 38.2293 32.9881 37.6301 32.9866C37.0302 32.9881 36.4921 33.2361 36.108 33.6336C35.77 33.984 35.5534 34.4524 35.53 34.9701L35.5239 35.071L35.53 35.1704V35.7292L35.5292 37.3721L35.5262 40.563V42.7879L35.5232 42.8081L35.5262 42.829V43.1069L35.5519 43.0905C35.6937 44.1065 36.5623 44.8917 37.6271 44.8917C38.6919 44.8917 39.5733 44.0946 39.7039 43.0688H39.722V42.8999L39.7318 42.8088L39.722 42.7176V40.5495L39.7393 40.5406V37.2488L39.7401 35.1726L39.7408 35.1719Z" fill="#276CF3"/>
<path id="Vector_7" d="M33.2046 38.2668V38.225C33.1932 37.0804 32.253 36.157 31.0961 36.1555C29.9981 36.1555 29.0963 36.9856 28.9937 38.045L28.9839 38.2452L28.9937 38.4454V40.9736L27.7938 40.2377L23.795 42.6897L26.0008 44.0412L26.6053 43.6707L26.6513 43.643L28.993 42.2071V47.1051L28.9922 47.1104L29.1016 47.0431C29.3703 47.8851 30.1573 48.4985 31.0976 48.4985C32.1684 48.4985 33.0431 47.7028 33.1744 46.677H33.1925V46.5082L33.2023 46.417L33.1925 46.3259V44.5366L33.2038 44.5284V40.8488L33.2068 38.2653L33.2046 38.2668Z" fill="#276CF3"/>
<path id="Vector_8" d="M46.2756 33.6946L46.2703 33.6498L46.2612 33.5654V33.2411H46.2212C46.0137 32.3065 45.1753 31.6065 44.1671 31.605C43.8464 31.605 43.5438 31.6827 43.2714 31.8104C42.6903 32.0816 42.2572 32.6076 42.1138 33.2411H42.073V33.4974L42.0594 33.6924L42.0625 33.7671V33.7738L42.061 36.7354V39.1179L42.0738 39.1097V39.4459L42.0647 39.5333L42.0738 39.6222V39.794H42.0919C42.2217 40.8198 43.0963 41.617 44.1679 41.617C45.2395 41.617 46.1156 40.8198 46.2439 39.794H46.262V39.6252L46.271 39.534L46.262 39.4444V36.4403L46.271 36.4335V33.7903L46.2763 33.6946H46.2756Z" fill="#276CF3"/>
<path id="Vector_9" d="M28.9908 43.6788V42.21L26.6492 43.6459L26.6032 43.6735C26.0493 44.0493 25.6863 44.6784 25.6863 45.3919C25.6863 46.5439 26.6288 47.4778 27.7925 47.4778C28.2369 47.4778 28.6482 47.3403 28.9893 47.1087V44.6575L28.9901 43.6795L28.9908 43.6788Z" fill="#7994FA"/>
</g>
</g>
</svg>
