<svg width="60" height="60" viewBox="0 0 60 60" fill="none" xmlns="http://www.w3.org/2000/svg">
<g id="Group 627591">
<g id="Group 627590">
<path id="Vector" d="M6.32273 39.8964C6.32273 40.7692 5.84895 41.5109 5.18762 41.7838L5.20877 41.8902H10.553C10.6347 41.8952 10.7165 41.8973 10.7997 41.8973C13.366 41.8973 15.4297 39.7364 15.2682 37.1334C15.1286 34.904 13.3146 33.0893 11.086 32.9511C8.48226 32.7889 6.32203 34.8519 6.32203 37.4196V37.5042V39.8964H6.32273Z" fill="#276CF3"/>
<path id="Vector_2" d="M8.2084 42.3201C5.88389 42.3201 3.99933 44.2046 3.99933 46.5284V48.5709H17.6016V46.5284C17.6016 44.2039 15.717 42.3201 13.3925 42.3201H8.2084Z" fill="#276CF3"/>
<path id="Vector_3" d="M48.5305 31.6989V13.2939C48.5305 11.9726 47.4997 10.8975 46.2321 10.8975H13.4479C12.1816 10.8975 11.1495 11.9726 11.1495 13.2939V31.9548C11.6768 31.9957 12.1683 32.088 12.6181 32.2354V13.2939C12.6181 12.7813 12.9896 12.3646 13.4479 12.3646H46.2321C46.6911 12.3646 47.0626 12.7813 47.0626 13.2939V32.1557C47.5061 31.9463 47.9982 31.7933 48.5305 31.6989Z" fill="#276CF3"/>
<path id="Vector_4" d="M17.67 38.1242C17.67 39.9637 19.1611 41.4548 20.9992 41.4548C22.8372 41.4548 24.3319 39.9637 24.3319 38.1242C24.3319 36.2848 22.84 34.7922 20.9992 34.7922C19.1583 34.7922 17.67 36.2841 17.67 38.1242Z" fill="#276CF3"/>
<path id="Vector_5" d="M25.4735 37.3377C25.4735 39.8279 27.4934 41.8471 29.9836 41.8471C32.4738 41.8471 34.4945 39.8279 34.4945 37.3377C34.4945 34.8475 32.4752 32.8269 29.9836 32.8269C27.492 32.8269 25.4735 34.8461 25.4735 37.3377Z" fill="#276CF3"/>
<path id="Vector_6" d="M27.3702 42.2725C25.0288 42.2725 23.1308 44.1704 23.1308 46.5118V48.5691H36.8318V46.5118C36.8318 44.1697 34.9345 42.2725 32.5917 42.2725H27.3709H27.3702Z" fill="#276CF3"/>
<path id="Vector_7" d="M49.1523 32.8269C46.6614 32.8269 44.6422 34.8461 44.6422 37.3377C44.6422 39.8293 46.6614 41.8471 49.1523 41.8471C51.6432 41.8471 53.6632 39.8279 53.6632 37.3377C53.6632 34.8475 51.6439 32.8269 49.1523 32.8269Z" fill="#276CF3"/>
<path id="Vector_8" d="M46.5402 42.2725C44.1988 42.2725 42.2994 44.1704 42.2994 46.5118V48.5691H55.9997V46.5118C55.9997 44.1697 54.1025 42.2725 51.7596 42.2725H46.5402Z" fill="#276CF3"/>
<path id="Vector_9" d="M37.0416 41.7681C36.3154 41.7681 35.647 42.0176 35.1154 42.4336C36.4585 43.2656 37.3624 44.7356 37.3948 46.4199H41.8006C41.8281 45.0585 42.4295 43.8395 43.3749 42.9899C42.8017 42.2482 41.907 41.7688 40.8974 41.7688H37.0416V41.7681Z" fill="#276CF3"/>
<path id="Vector_10" d="M16.59 42.9892C17.534 43.8388 18.1368 45.0578 18.1636 46.4192H22.5814C22.6138 44.7377 23.5148 43.2691 24.853 42.4371C24.3207 42.0198 23.6523 41.7681 22.9226 41.7681H19.0661C18.0579 41.7681 17.1618 42.2475 16.59 42.9892Z" fill="#276CF3"/>
<path id="Vector_11" d="M38.7246 34.8067C37.0629 34.9096 35.7092 36.2619 35.6063 37.9251C35.485 39.8661 37.0234 41.4771 38.9369 41.4771L39.1209 41.4721H43.1057L43.1212 41.3925C42.6284 41.1894 42.2752 40.6367 42.2752 39.9859V38.2022H42.2738L42.2752 38.1394C42.2752 36.2245 40.6642 34.6869 38.7246 34.8074V34.8067Z" fill="#276CF3"/>
<path id="Vector_12" d="M35.3434 15.7735C34.204 14.7181 32.5035 14.0067 30.7092 13.9714L30.6669 20.5931L35.3434 15.7735Z" fill="#276CF3"/>
<path id="Vector_13" d="M29.4657 13.9258C24.7779 13.9258 21.3162 17.7266 21.3162 22.4144C21.3162 27.1022 25.1156 30.9031 29.8041 30.9031C33.0903 30.9031 36.1473 28.9614 37.274 26.4571L29.6363 22.4144V13.93L29.4657 13.9258Z" fill="#276CF3"/>
<path id="Vector_14" d="M33.3214 23.1105L35.0642 17.5583L33.8417 18.8147L32.6135 22.7312L33.3214 23.1105Z" fill="#AAD4C8"/>
<path id="Vector_15" d="M32.402 22.6175L33.48 19.1868L32.2567 20.4424L31.6927 22.2382L32.402 22.6175Z" fill="#AAD4C8"/>
<path id="Vector_16" d="M36.0827 24.5865L37.8016 19.1084C37.6564 18.7523 37.4879 18.4104 37.2954 18.0833L35.3727 24.2065L36.0827 24.5858V24.5865Z" fill="#AAD4C8"/>
<path id="Vector_17" d="M36.9975 25.0799L38.2962 20.9435C38.2242 20.4365 38.1002 19.9402 37.9324 19.4629L36.2868 24.6999L36.9968 25.0799H36.9975Z" fill="#AAD4C8"/>
<path id="Vector_18" d="M37.6243 25.4166C38.158 24.3851 38.3695 23.1739 38.3695 21.933C38.3695 21.7998 38.3653 21.6672 38.3561 21.5347L37.2076 25.1931L37.6243 25.4159V25.4166Z" fill="#AAD4C8"/>
<path id="Vector_19" d="M33.531 23.2232L34.241 23.6025L36.3709 16.8165C36.2778 16.7114 36.1826 16.6092 36.0839 16.5105L35.4261 17.1866L33.531 23.2232Z" fill="#AAD4C8"/>
<path id="Vector_20" d="M31.9001 20.8152L30.9208 21.822L31.4876 22.1266L31.9001 20.8152Z" fill="#AAD4C8"/>
<path id="Vector_21" d="M35.1619 24.095L37.1317 17.8187C36.9548 17.5402 36.7616 17.2744 36.5529 17.0234L34.4519 23.7149L35.1619 24.0942V24.095Z" fill="#AAD4C8"/>
</g>
</g>
</svg>
