<svg width="87" height="48" viewBox="0 0 87 48" fill="none" xmlns="http://www.w3.org/2000/svg">
<path d="M10.128 32.784C8.432 32.784 7.248 32.448 6.576 31.776C5.904 31.136 5.568 30.288 5.568 29.232C5.568 28.24 5.792 27.12 6.24 25.872C6.912 23.984 7.68 22.032 8.544 20.016C9.44 17.968 10.288 15.968 11.088 14.016C11.792 12.352 12.496 10.64 13.2 8.88C13.904 7.12 14.384 5.6 14.64 4.32C13.232 4.32 11.792 4.432 10.32 4.656C8.88 4.88 7.536 5.216 6.288 5.664C5.04 6.112 4.032 6.688 3.264 7.392C2.528 8.096 2.16 8.944 2.16 9.936C2.16 10.576 2.336 11.104 2.688 11.52C3.072 11.904 3.488 12.208 3.936 12.432C4.384 12.656 4.736 12.848 4.992 13.008C5.248 13.168 5.376 13.296 5.376 13.392C5.376 13.456 5.312 13.488 5.184 13.488C4.928 13.488 4.464 13.328 3.792 13.008C3.152 12.656 2.56 12.176 2.016 11.568C1.472 10.96 1.184 10.256 1.152 9.456C1.152 9.392 1.12 9.296 1.056 9.168C0.992 9.04 0.96 8.928 0.96 8.832C0.896 7.616 1.2 6.592 1.872 5.76C2.576 4.928 3.52 4.256 4.704 3.744C5.888 3.2 7.2 2.816 8.64 2.592C10.08 2.336 11.536 2.208 13.008 2.208C13.296 2.208 13.584 2.208 13.872 2.208C14.16 2.208 14.448 2.224 14.736 2.256C14.704 2.032 14.624 1.84 14.496 1.68C14.432 1.552 14.4 1.456 14.4 1.392C14.4 1.136 14.544 1.008 14.832 1.008C15.152 1.008 15.456 1.248 15.744 1.728C15.872 1.952 15.952 2.176 15.984 2.4C17.808 2.592 19.328 2.992 20.544 3.6C20.8 3.696 21.088 3.904 21.408 4.224C21.728 4.512 21.888 4.752 21.888 4.944C21.888 5.104 21.76 5.184 21.504 5.184C21.376 5.184 21.216 5.168 21.024 5.136C20.832 5.104 20.608 5.04 20.352 4.944C19.2 4.592 17.776 4.384 16.08 4.32C16.016 5.696 15.744 7.328 15.264 9.216C14.784 11.072 14.16 12.864 13.392 14.592C12.4 16.896 11.44 19.264 10.512 21.696C9.616 24.096 9.072 26.32 8.88 28.368C8.848 28.496 8.832 28.624 8.832 28.752C8.832 28.88 8.832 29.008 8.832 29.136C8.832 30 9.008 30.624 9.36 31.008C9.712 31.392 10.176 31.584 10.752 31.584C11.648 31.584 12.72 31.232 13.968 30.528C15.216 29.856 16.432 29.072 17.616 28.176C19.792 26.544 21.648 24.784 23.184 22.896C24.752 21.008 26.256 18.928 27.696 16.656C29.008 14.576 30.256 12.496 31.44 10.416C32.656 8.336 34.048 6.368 35.616 4.512C36 4 36.528 3.472 37.2 2.928C37.872 2.384 38.608 1.92 39.408 1.536C40.24 1.152 41.056 0.959999 41.856 0.959999C42.112 0.959999 42.384 0.991999 42.672 1.056C42.96 1.12 43.216 1.232 43.44 1.392C43.664 1.52 43.728 1.648 43.632 1.776C43.568 1.872 43.504 1.92 43.44 1.92C43.344 1.92 43.248 1.92 43.152 1.92C43.056 1.888 42.976 1.872 42.912 1.872C42.208 1.872 41.36 2.336 40.368 3.264C39.408 4.192 38.32 5.44 37.104 7.008C35.888 8.544 34.56 10.272 33.12 12.192C31.712 14.112 30.224 16.08 28.656 18.096C27.024 20.208 25.328 22.256 23.568 24.24C21.84 26.192 20.08 27.872 18.288 29.28C16.912 30.368 15.536 31.216 14.16 31.824C12.816 32.464 11.472 32.784 10.128 32.784ZM38.9415 13.296C38.5255 13.296 38.0935 13.264 37.6455 13.2C37.1975 13.104 36.9735 12.8 36.9735 12.288C36.9735 12.192 37.1815 11.968 37.5975 11.616C38.0455 11.264 38.4935 10.912 38.9415 10.56C39.4215 10.176 39.7095 9.952 39.8055 9.888C40.3495 9.44 40.6855 9.216 40.8135 9.216C40.9735 9.216 40.9735 9.424 40.8135 9.84C40.6535 10.256 40.5735 10.624 40.5735 10.944C40.5735 11.104 40.4775 11.376 40.2855 11.76C40.0935 12.144 39.8695 12.496 39.6135 12.816C39.3575 13.136 39.1335 13.296 38.9415 13.296ZM33.7095 30.48C33.1335 30.48 32.6055 30.352 32.1255 30.096C31.6775 29.84 31.3415 29.36 31.1175 28.656C31.0855 28.56 31.0535 28.464 31.0215 28.368C31.0215 28.272 31.0215 28.16 31.0215 28.032C31.0215 27.392 31.1655 26.592 31.4535 25.632C31.7415 24.672 32.0935 23.744 32.5095 22.848C32.3175 23.104 32.0935 23.424 31.8375 23.808C31.5815 24.16 31.2135 24.624 30.7335 25.2C30.6055 25.328 30.4615 25.392 30.3015 25.392C30.0775 25.392 29.9655 25.264 29.9655 25.008C29.9655 24.816 30.0295 24.656 30.1575 24.528C30.9895 23.472 31.7255 22.528 32.3655 21.696C33.0375 20.864 33.5335 20.16 33.8535 19.584C33.8535 19.552 33.8375 19.536 33.8055 19.536C33.8055 19.504 33.8055 19.472 33.8055 19.44C33.8055 19.344 33.8535 19.2 33.9495 19.008C34.2055 18.24 34.4615 17.6 34.7175 17.088C35.0055 16.544 35.3095 16.24 35.6295 16.176C35.6935 16.176 35.7575 16.176 35.8215 16.176C35.8855 16.144 35.9495 16.128 36.0135 16.128C36.3655 16.128 36.6855 16.208 36.9735 16.368C37.2615 16.528 37.4055 16.768 37.4055 17.088C37.4055 17.376 37.2935 17.728 37.0695 18.144C36.8775 18.56 36.6215 19.072 36.3015 19.68C35.5975 21.152 34.9575 22.496 34.3815 23.712C33.8375 24.896 33.5335 25.872 33.4695 26.64C33.4375 26.768 33.4215 26.896 33.4215 27.024C33.4215 27.12 33.4215 27.232 33.4215 27.36C33.4215 28.64 33.8375 29.28 34.6695 29.28C35.1815 29.28 35.8375 29.008 36.6375 28.464C37.4375 27.888 38.2535 27.2 39.0855 26.4C39.9175 25.568 40.6695 24.784 41.3415 24.048C42.0455 23.28 42.5255 22.704 42.7815 22.32C42.8775 22.224 42.9735 22.176 43.0695 22.176C43.1975 22.176 43.2935 22.224 43.3575 22.32C43.4535 22.416 43.4695 22.544 43.4055 22.704C43.1175 23.248 42.6215 23.936 41.9175 24.768C41.2455 25.568 40.4775 26.384 39.6135 27.216C38.7815 28.016 37.9655 28.704 37.1655 29.28C36.7495 29.6 36.2215 29.872 35.5815 30.096C34.9735 30.352 34.3495 30.48 33.7095 30.48ZM45.2576 30.48C43.9136 30.48 42.9696 30.144 42.4256 29.472C41.9136 28.8 41.6576 27.968 41.6576 26.976C41.6576 26.048 41.8656 24.88 42.2816 23.472C42.7296 22.064 43.3056 20.544 44.0096 18.912C44.7136 17.28 45.4656 15.664 46.2656 14.064C47.0976 12.432 47.9136 10.944 48.7136 9.6C49.5456 8.224 50.2656 7.12 50.8736 6.288C51.4816 5.488 52.1376 4.688 52.8416 3.888C53.5456 3.088 54.3296 2.416 55.1936 1.872C56.0576 1.328 57.0336 1.056 58.1216 1.056C58.8576 1.056 59.4816 1.264 59.9936 1.68C60.5376 2.064 60.8096 2.656 60.8096 3.456C60.8096 3.776 60.7456 4.144 60.6176 4.56C60.5216 4.976 60.3456 5.408 60.0896 5.856C58.1376 9.248 55.8016 12.384 53.0816 15.264C50.3936 18.144 47.5456 20.816 44.5376 23.28C44.4096 23.76 44.2816 24.192 44.1536 24.576C44.0576 24.96 43.9776 25.264 43.9136 25.488C43.8816 25.648 43.8656 25.824 43.8656 26.016C43.8656 26.176 43.8656 26.336 43.8656 26.496C43.8656 27.264 43.9936 27.936 44.2496 28.512C44.5056 29.088 44.9376 29.376 45.5456 29.376C46.1216 29.376 46.8256 29.104 47.6576 28.56C48.5216 27.984 49.3856 27.296 50.2496 26.496C51.1136 25.664 51.8976 24.864 52.6016 24.096C53.3056 23.328 53.8016 22.736 54.0896 22.32C54.1856 22.224 54.2816 22.176 54.3776 22.176C54.5056 22.176 54.6016 22.24 54.6656 22.368C54.7616 22.496 54.7616 22.656 54.6656 22.848C54.3456 23.392 53.8336 24.064 53.1296 24.864C52.4256 25.664 51.6416 26.48 50.7776 27.312C49.9136 28.112 49.0816 28.816 48.2816 29.424C47.2896 30.128 46.2816 30.48 45.2576 30.48ZM45.2096 21.36C46.4256 20.528 47.6896 19.456 49.0016 18.144C50.3136 16.8 51.5936 15.344 52.8416 13.776C54.1216 12.208 55.2736 10.656 56.2976 9.12C57.3536 7.584 58.2016 6.192 58.8416 4.944C59.0336 4.592 59.1616 4.288 59.2256 4.032C59.3216 3.744 59.3696 3.488 59.3696 3.264C59.3696 2.656 59.1136 2.352 58.6016 2.352C58.1536 2.352 57.5936 2.592 56.9216 3.072C55.1936 4.416 53.5936 6.144 52.1216 8.256C50.6496 10.336 49.3376 12.528 48.1856 14.832C47.0336 17.136 46.0416 19.312 45.2096 21.36ZM56.5076 30.48C55.1636 30.48 54.2196 30.144 53.6756 29.472C53.1636 28.8 52.9076 27.968 52.9076 26.976C52.9076 26.048 53.1156 24.88 53.5316 23.472C53.9796 22.064 54.5556 20.544 55.2596 18.912C55.9636 17.28 56.7156 15.664 57.5156 14.064C58.3476 12.432 59.1636 10.944 59.9636 9.6C60.7956 8.224 61.5156 7.12 62.1236 6.288C62.7316 5.488 63.3876 4.688 64.0916 3.888C64.7956 3.088 65.5796 2.416 66.4436 1.872C67.3076 1.328 68.2836 1.056 69.3716 1.056C70.1076 1.056 70.7316 1.264 71.2436 1.68C71.7876 2.064 72.0596 2.656 72.0596 3.456C72.0596 3.776 71.9956 4.144 71.8676 4.56C71.7716 4.976 71.5956 5.408 71.3396 5.856C69.3876 9.248 67.0516 12.384 64.3316 15.264C61.6436 18.144 58.7956 20.816 55.7876 23.28C55.6596 23.76 55.5316 24.192 55.4036 24.576C55.3076 24.96 55.2276 25.264 55.1636 25.488C55.1316 25.648 55.1156 25.824 55.1156 26.016C55.1156 26.176 55.1156 26.336 55.1156 26.496C55.1156 27.264 55.2436 27.936 55.4996 28.512C55.7556 29.088 56.1876 29.376 56.7956 29.376C57.3716 29.376 58.0756 29.104 58.9076 28.56C59.7716 27.984 60.6356 27.296 61.4996 26.496C62.3636 25.664 63.1476 24.864 63.8516 24.096C64.5556 23.328 65.0516 22.736 65.3396 22.32C65.4356 22.224 65.5316 22.176 65.6276 22.176C65.7556 22.176 65.8516 22.24 65.9156 22.368C66.0116 22.496 66.0116 22.656 65.9156 22.848C65.5956 23.392 65.0836 24.064 64.3796 24.864C63.6756 25.664 62.8916 26.48 62.0276 27.312C61.1636 28.112 60.3316 28.816 59.5316 29.424C58.5396 30.128 57.5316 30.48 56.5076 30.48ZM56.4596 21.36C57.6756 20.528 58.9396 19.456 60.2516 18.144C61.5636 16.8 62.8436 15.344 64.0916 13.776C65.3716 12.208 66.5236 10.656 67.5476 9.12C68.6036 7.584 69.4516 6.192 70.0916 4.944C70.2836 4.592 70.4116 4.288 70.4756 4.032C70.5716 3.744 70.6196 3.488 70.6196 3.264C70.6196 2.656 70.3636 2.352 69.8516 2.352C69.4036 2.352 68.8436 2.592 68.1716 3.072C66.4436 4.416 64.8436 6.144 63.3716 8.256C61.8996 10.336 60.5876 12.528 59.4356 14.832C58.2836 17.136 57.2916 19.312 56.4596 21.36ZM62.6696 47.616C62.2856 47.52 61.9496 47.424 61.6616 47.328C61.0536 47.008 60.6216 46.64 60.3656 46.224C60.1096 45.84 59.9816 45.424 59.9816 44.976C59.9816 44.24 60.2376 43.44 60.7496 42.576C61.2296 41.744 61.8696 40.88 62.6696 39.984C63.4696 39.024 64.4776 38.048 65.6936 37.056C66.9416 36.064 68.2376 35.104 69.5816 34.176C70.9256 33.28 72.1096 32.496 73.1336 31.824C73.6776 30.704 74.2376 29.504 74.8136 28.224C75.4216 26.944 75.9976 25.712 76.5416 24.528C77.0856 23.312 77.5496 22.208 77.9336 21.216C78.3496 20.224 78.6536 19.456 78.8456 18.912C78.3336 19.52 77.7416 20.288 77.0696 21.216C76.3976 22.112 75.6616 23.072 74.8616 24.096C74.0616 25.088 73.2296 26.032 72.3656 26.928C71.5336 27.824 70.6696 28.56 69.7736 29.136C68.8776 29.68 67.9976 29.952 67.1336 29.952C65.8536 29.952 64.9576 29.632 64.4456 28.992C63.9656 28.32 63.7256 27.536 63.7256 26.64C63.7256 26 63.8056 25.36 63.9656 24.72C64.1576 24.08 64.3976 23.488 64.6856 22.944C64.8776 22.56 65.1816 22.048 65.5976 21.408C66.0136 20.768 66.4936 20.112 67.0376 19.44C67.5816 18.768 68.1256 18.208 68.6696 17.76C69.2456 17.312 69.7896 17.088 70.3016 17.088C70.9096 17.088 71.3736 17.312 71.6936 17.76C72.0136 18.176 72.0456 18.464 71.7896 18.624C71.2776 18.976 70.6376 19.52 69.8696 20.256C69.1336 20.96 68.3976 21.776 67.6616 22.704C67.4696 22.96 67.2296 23.36 66.9416 23.904C66.6856 24.448 66.4456 25.04 66.2216 25.68C65.9976 26.288 65.8856 26.848 65.8856 27.36C65.8856 27.584 65.9176 27.808 65.9816 28.032C66.0456 28.224 66.1576 28.368 66.3176 28.464C66.5736 28.656 66.8616 28.752 67.1816 28.752C67.6296 28.752 68.1256 28.608 68.6696 28.32C69.2456 28.032 69.7896 27.664 70.3016 27.216C72.0936 25.488 73.6936 23.68 75.1016 21.792C76.5096 19.904 77.9976 18.032 79.5656 16.176C79.6616 15.856 79.9336 15.696 80.3816 15.696C80.8936 15.696 81.4216 15.856 81.9656 16.176C82.5416 16.464 82.7816 16.704 82.6856 16.896C82.3976 17.536 82.0136 18.384 81.5336 19.44C81.0856 20.496 80.5896 21.632 80.0456 22.848C79.5016 24.064 78.9576 25.28 78.4136 26.496C77.8696 27.68 77.3736 28.752 76.9256 29.712C77.3096 29.52 77.9976 29.04 78.9896 28.272C79.9816 27.504 81.0696 26.576 82.2536 25.488C83.4376 24.368 84.5096 23.216 85.4696 22.032C85.6616 21.84 85.8056 21.744 85.9016 21.744C86.0936 21.744 86.1896 21.872 86.1896 22.128C86.1896 22.352 86.0936 22.608 85.9016 22.896C85.4216 23.536 84.7496 24.288 83.8856 25.152C83.0536 26.016 82.1416 26.896 81.1496 27.792C80.1896 28.656 79.2456 29.44 78.3176 30.144C77.3896 30.88 76.5896 31.44 75.9176 31.824C74.9256 33.936 73.9656 35.92 73.0376 37.776C72.1096 39.664 71.2616 41.184 70.4936 42.336C69.9816 43.136 69.3576 43.952 68.6216 44.784C67.8856 45.616 67.0856 46.304 66.2216 46.848C65.3576 47.424 64.4456 47.712 63.4856 47.712C63.3576 47.712 63.2296 47.696 63.1016 47.664C62.9736 47.664 62.8296 47.648 62.6696 47.616ZM62.8136 46.56C63.0696 46.56 63.3736 46.48 63.7256 46.32C64.1096 46.16 64.5096 45.904 64.9256 45.552C66.1416 44.56 67.1656 43.392 67.9976 42.048C68.8296 40.736 69.5656 39.344 70.2056 37.872C70.8776 36.4 71.5496 34.992 72.2216 33.648C70.9736 34.576 69.5656 35.664 67.9976 36.912C66.4296 38.192 65.0056 39.456 63.7256 40.704C62.9576 41.472 62.3976 42.224 62.0456 42.96C61.6936 43.728 61.5176 44.4 61.5176 44.976C61.5176 46.032 61.9496 46.56 62.8136 46.56Z" fill="#353644"/>
</svg>
