<svg width="100" height="46" viewBox="0 0 100 46" fill="none" xmlns="http://www.w3.org/2000/svg">
<path d="M10.232 42.568C9.464 41.224 8.984 39.64 8.936 38.296C8.84 34.024 12.632 30.616 17.864 30.376C20.6 30.28 22.808 32.824 24.344 35.224C25.448 36.904 25.4 37.48 24.728 39.544C23.912 41.944 22.184 44.056 19.928 44.92C18.872 45.352 17.72 45.496 16.664 45.496C14.12 45.496 11.48 44.584 10.232 42.568ZM26.12 6.328V18.04C27.128 17.848 28.52 17.608 29.384 17.704C30.2 17.8 31.544 18.856 31.976 19.672C32.216 20.2 32.456 20.824 31.832 21.208C30.68 21.928 28.28 21.736 26.12 21.448C26.072 24.76 25.832 27.832 23.576 30.664C23.192 31.192 22.904 31.288 22.664 31.288C22.328 31.288 21.848 30.28 21.704 29.752C21.656 29.464 21.608 28.648 21.8 28.216C22.088 22.12 21.752 11.08 21.512 6.904C21.512 6.52 21.464 6.232 21.128 6.04C19.832 5.272 18.776 4.408 17.912 3.112C17.768 2.92 17.432 1.672 17.528 1.048C17.576 0.615999 17.96 0.519998 18.2 0.567997C20.6 1.048 22.616 2.344 24.776 3.832C25.928 4.6 26.12 5.176 26.12 6.328ZM11.576 15.16C11.24 15.4 8.456 15.736 6.056 15.976C4.76 16.12 4.472 16.12 3.416 15.592C2.888 15.304 0.92 13.624 0.824 13C0.776 12.808 1.112 12.28 1.4 12.088C1.64 11.944 1.832 11.992 2.072 12.04C2.936 12.232 4.232 12.28 5.672 12.232C8.648 12.088 11.768 11.704 13.688 11.128C14.6 10.84 15.56 10.936 16.808 12.664C17.096 13.048 17.096 13.432 16.856 14.008C15.32 17.608 12.488 22.984 9.56 25.912C8.648 26.824 5.384 28.024 3.848 28.168C2.888 28.264 0.872 27.064 0.728 26.584C0.68 26.392 0.968 25.624 1.16 25.624C3.224 25.48 5.096 24.136 6.008 23.32C8.648 20.872 9.704 18.28 11.576 15.16ZM13.16 37.432C12.536 39.496 15.464 41.56 17.384 41.368C18.776 41.224 20.264 40.168 20.888 38.68C21.8 36.712 20.648 34.648 18.488 34.168C16.424 33.736 13.64 35.08 13.16 37.432ZM62.1594 6.52V18.184C63.6474 17.752 65.0394 17.512 66.2874 17.656C66.9594 17.752 68.3514 19.432 68.7834 20.248C69.0234 20.728 69.1674 21.352 68.6394 21.736C67.4394 22.408 64.3674 22.024 62.1594 21.736C62.0634 25.624 61.6794 29.512 59.1354 32.728L59.0874 32.776C59.7594 33.256 60.2874 33.88 60.8154 34.696C61.8714 36.28 62.1594 38.2 61.5354 40.312C60.7194 42.52 59.1354 44.44 57.0234 45.256C56.0154 45.688 54.9114 45.832 53.8074 45.832C51.4554 45.832 49.0554 45.016 47.9034 43C47.1354 41.752 46.7514 40.36 46.7034 39.16C46.5594 35.032 50.1594 31.864 54.9594 31.576C55.7754 31.576 56.5434 31.624 57.2154 31.816C57.1674 31.48 57.3114 30.664 57.5034 30.184C57.8394 24.952 57.6474 10.408 57.4554 7.144C57.4554 6.76 57.4074 6.424 57.0234 6.232C55.6794 5.464 54.4794 4.552 53.6154 3.208C53.4714 3.016 53.0874 1.72 53.1834 1.048C53.2314 0.615999 53.6634 0.519998 53.9034 0.567997C56.3994 1.048 58.5114 2.392 60.7194 3.928C61.9194 4.744 62.1594 5.368 62.1594 6.52ZM53.2314 13.624C52.7034 16.12 51.7434 21.928 50.5434 25.144C50.5434 25.96 51.0234 27.448 48.3354 28.216C47.8074 28.36 43.6794 29.368 43.8234 29.416C43.1034 29.416 41.8074 27.832 41.8074 26.44C41.8074 26.008 41.9514 25.768 42.2874 25.48C43.0074 24.952 46.7994 24.232 47.8554 24.232C47.9994 24.232 48.0954 24.232 48.0474 23.848C47.9034 22.696 47.9034 20.776 47.9514 19.624C47.9994 17.752 48.1914 15.928 48.2874 14.152C48.3354 13.768 48.2394 13.768 48.0474 13.624C46.9914 12.952 45.5994 11.128 44.6394 10.024C44.0634 9.304 43.1994 8.152 42.8634 7.384C42.7674 7.144 42.8154 6.904 42.9594 6.712C43.1994 6.472 43.4874 6.328 43.7274 6.28C44.0154 6.232 44.2074 6.28 44.5434 6.424C46.8474 7.288 52.6074 9.784 53.2314 12.28C53.3274 12.76 53.2794 13.24 53.2314 13.624ZM45.5034 17.032H45.5514C46.1274 17.032 46.9914 17.368 47.0874 17.992C47.1834 18.712 46.2234 20.344 45.0714 20.392C44.1114 20.44 43.1034 20.536 42.0954 20.92C42.0954 22.312 41.9514 23.32 41.7594 23.848C41.2314 25.096 40.2714 26.584 39.6954 27.256C39.5034 27.496 39.3114 27.544 39.1674 27.544C38.9274 27.544 38.4954 27.496 38.1594 27.4C37.6314 25.192 37.4394 22.552 37.2954 20.152C37.2954 19.816 37.3434 19.72 36.9114 19.24C35.8074 18.184 34.4634 15.976 33.8874 14.44C33.7434 14.2 34.5114 13.384 35.2794 13.384C35.4714 13.384 35.6634 13.48 35.9034 13.576C37.9194 14.488 40.9434 16.408 41.4714 17.704C42.4794 17.56 44.0634 17.128 45.5034 17.032ZM55.7754 35.032C53.7594 34.6 50.9274 35.896 50.3994 38.152C49.9194 40.36 52.6554 42.28 54.6234 42.088C56.0154 41.944 57.3594 40.888 58.1274 39.352C58.9434 37.576 57.7434 35.56 55.7754 35.032ZM87.9343 18.376L87.3583 19.096L90.0463 18.856C91.0063 18.76 93.3103 20.2 93.3103 21.016C93.3103 21.544 91.9663 22.456 91.2463 22.696C90.4303 22.984 86.2063 23.272 84.9583 23.272C85.5823 23.896 85.8223 24.52 85.9183 25.624C85.9663 26.344 85.9663 26.824 85.8223 27.832C85.5343 30.04 83.9503 31.528 83.4223 31.432C82.7503 31.336 81.9343 29.272 81.8863 27.928C81.8863 27.88 81.8383 25.672 81.8383 25.528C81.7903 25.048 81.4543 24.088 80.7823 23.56C80.3983 23.512 76.1743 23.8 74.8303 23.704C72.4303 23.56 71.1823 22.984 69.9823 21.976C69.8863 21.88 69.8383 21.736 69.9343 21.496C70.0783 21.112 70.4623 20.584 70.7023 20.536C71.9023 20.392 73.1983 20.44 74.6383 20.344C76.4143 20.248 80.9743 19.768 84.8143 19.384C84.9103 18.76 85.0543 17.944 85.1503 17.08C85.2943 15.544 85.5343 12.232 85.2943 10.984C82.9903 11.272 80.7823 11.992 78.2383 12.616C77.6623 12.76 75.3103 11.464 74.9743 10.696C74.9263 10.552 74.9263 9.736 75.3103 9.688C78.8623 9.256 83.2783 8.152 86.0623 7.144C86.5423 6.952 86.9743 6.904 87.4543 7.192C88.2223 7.576 89.9503 9.16 90.0463 9.784C90.0463 12.184 89.2783 16.312 87.9343 18.376ZM95.4703 10.264V7.816C95.4703 7.672 95.4223 7.48 95.2783 7.384C93.3103 6.376 91.4863 4.168 89.8543 2.056C89.7103 1.912 89.7583 1.768 89.8063 1.576C89.9023 1.24 90.3343 0.423999 91.0063 0.423999C91.4863 0.471998 91.9663 0.663999 92.3983 0.855999C94.1743 1.624 96.3343 3.16 97.9183 4.312C99.1663 5.176 99.4062 5.848 99.4062 7.432C99.4543 14.584 99.3583 22.552 99.2143 27.352C99.1183 30.136 98.4943 33.64 96.4783 35.032C96.1903 35.224 95.9023 35.224 95.7583 35.128C95.5663 34.984 95.5183 34.648 95.5183 34.264V29.416C93.9823 29.656 92.0143 29.656 90.2383 29.128C89.4223 28.888 88.5583 27.352 88.6543 26.488C89.1823 26.296 89.6623 26.056 90.1423 25.96C91.7743 25.624 92.9263 25.576 94.7023 25.72L95.5183 25.816C95.4703 20.488 95.4703 15.208 95.4703 10.264ZM84.1423 38.776C86.9743 38.968 92.0623 38.44 94.7502 37.624C95.4703 37.384 97.6783 38.104 97.9663 39.064C98.1583 39.64 97.1503 40.552 96.6223 40.84C93.7423 42.424 87.6463 42.952 83.1343 42.664C81.8383 42.568 79.7743 40.216 79.9663 38.872C80.1583 37.432 80.1583 35.512 79.8703 34.6C79.6303 33.88 78.4303 32.776 77.3743 31.432C76.9423 30.904 78.7183 30.28 79.7263 30.616C81.9823 31.384 83.7583 33.304 83.9503 33.736C84.3823 34.648 84.4303 37.768 84.1423 38.776Z" fill="#353644"/>
</svg>
