<svg width="40" height="40" viewBox="0 0 40 40" fill="none" xmlns="http://www.w3.org/2000/svg">
<rect width="40" height="40" rx="20" fill="white"/>
<path d="M28.8207 16.4C28.8207 16.4 28.6449 15.159 28.1035 14.6141C27.418 13.8969 26.6516 13.8934 26.3 13.8512C23.7828 13.6684 20.0035 13.6684 20.0035 13.6684H19.9965C19.9965 13.6684 16.2172 13.6684 13.7 13.8512C13.3484 13.8934 12.582 13.8969 11.8965 14.6141C11.3551 15.159 11.1828 16.4 11.1828 16.4C11.1828 16.4 11 17.859 11 19.3145V20.6786C11 22.134 11.1793 23.593 11.1793 23.593C11.1793 23.593 11.3551 24.834 11.893 25.3789C12.5785 26.0961 13.4785 26.0715 13.8793 26.1489C15.3207 26.286 20 26.3282 20 26.3282C20 26.3282 23.7828 26.3211 26.3 26.1418C26.6516 26.0996 27.418 26.0961 28.1035 25.3789C28.6449 24.834 28.8207 23.593 28.8207 23.593C28.8207 23.593 29 22.1375 29 20.6786V19.3145C29 17.859 28.8207 16.4 28.8207 16.4ZM18.1402 22.3344V17.2754L23.0023 19.8137L18.1402 22.3344Z" fill="#0C1518"/>
</svg>
