<svg width="30" height="30" viewBox="0 0 30 30" fill="none" xmlns="http://www.w3.org/2000/svg">
<g id="Group 627580">
<g id="Group 627579">
<path id="Vector" d="M7.54807 18.8867L0 22.2707L15 29.0003L30 22.2707L22.4543 18.8867L15 22.23L7.54807 18.8867Z" fill="#02035E"/>
<path id="Vector_2" d="M22.4543 12.1133L15 15.4565L7.54807 12.1133L0 15.4997L7.54807 18.886L15 15.5428L22.4543 18.886L30 15.4997L22.4543 12.1133Z" fill="#0056D8"/>
<path id="Vector_3" d="M7.54688 18.8862L14.9988 22.2295L22.4531 18.8862L14.9988 15.543L7.54688 18.8862Z" fill="#1A1C87"/>
<path id="Vector_4" d="M22.4543 12.1136L30 8.72964L15 2L0 8.72964L7.54807 12.1136L15 8.77036L22.4543 12.1136Z" fill="#9EB7F7"/>
<path id="Vector_5" d="M22.4531 12.1128L14.9988 8.76953L7.54688 12.1128L14.9988 15.4561L22.4531 12.1128Z" fill="#5391EE"/>
</g>
</g>
</svg>
